<svg width="59" height="59" viewBox="0 0 59 59" fill="none" xmlns="http://www.w3.org/2000/svg">
<path d="M36.6079 28.9051L30.993 23.2756L36.04 18.2114L38.019 20.1879C38.2484 20.4173 38.527 20.5427 38.8548 20.564C39.1826 20.5853 39.4833 20.4599 39.757 20.1879C40.0291 19.9158 40.1651 19.6233 40.1651 19.3103C40.1651 18.9972 40.0291 18.7047 39.757 18.4326L37.7953 16.4709L42.5939 11.6722L48.2235 17.3018L36.6079 28.9051ZM17.3493 48.1785L11.7197 42.5489L16.5159 37.7502L18.4924 39.712C18.7317 39.9512 19.0136 40.0791 19.3381 40.0955C19.6626 40.1119 19.9609 39.984 20.2329 39.712C20.505 39.4399 20.6402 39.1498 20.6385 38.8417C20.6369 38.5336 20.5017 38.2435 20.2329 37.9715L18.2712 35.995L23.2862 30.9947L28.9035 36.6095L17.3493 48.1785ZM47.1787 49.1667C47.749 49.1667 48.2227 48.9782 48.5996 48.6013C48.9766 48.2244 49.165 47.7507 49.165 47.1804V42.2219C49.165 41.9581 49.1192 41.7114 49.0274 41.482C48.9356 41.2525 48.7832 41.0313 48.5701 40.8182L38.3631 30.6112L50.0353 18.8923C50.4794 18.4482 50.7015 17.9188 50.7015 17.3043C50.7015 16.6897 50.4794 16.1595 50.0353 15.7137L44.182 9.86289C43.7379 9.41875 43.2085 9.19832 42.5939 9.20159C41.9793 9.20487 41.45 9.4294 41.0058 9.87518L29.223 21.5941L18.2417 10.5979C17.9713 10.3275 17.6861 10.1325 17.3862 10.0128C17.0863 9.8932 16.7667 9.83339 16.4274 9.83339C16.0882 9.83339 15.7686 9.8932 15.4687 10.0128C15.1688 10.1325 14.8828 10.3275 14.6107 10.5979L10.5987 14.7697C10.3267 15.0401 10.1382 15.3253 10.0333 15.6252C9.92841 15.9251 9.87678 16.2447 9.87842 16.584C9.88006 16.9232 9.9325 17.233 10.0358 17.5132C10.139 17.7935 10.3258 18.0688 10.5963 18.3392L21.4867 29.2886L9.85875 41.0075C9.41625 41.4516 9.195 41.981 9.195 42.5956C9.195 43.2102 9.41625 43.7395 9.85875 44.1837L15.712 50.0345C16.1562 50.4803 16.6855 50.7032 17.3001 50.7032C17.9147 50.7032 18.4441 50.4811 18.8882 50.037L30.6095 38.3648L40.8165 48.5718C41.0296 48.7849 41.2508 48.9373 41.4803 49.0291C41.7097 49.1208 41.9564 49.1667 42.2203 49.1667H47.1787ZM46.7067 46.7084H42.4612L18.3203 22.5823L22.5831 18.3245L46.7067 42.4628V46.7084ZM20.4222 20.4386L22.5806 18.3245L18.3228 22.5848L20.4222 20.4386Z" fill="#221E1E"/>
</svg>
