<svg width="59" height="59" viewBox="0 0 59 59" fill="none" xmlns="http://www.w3.org/2000/svg">
<path d="M25.8115 9.83357C21.7782 9.82162 17.8896 11.3354 14.9259 14.0711C11.9621 16.8069 10.1426 20.5622 9.83238 24.5836H2.45738L12.2907 34.4169L22.124 24.5836H14.8228C15.125 21.8802 16.4127 19.3829 18.4398 17.569C20.4669 15.755 23.0913 14.7515 25.8115 14.7502C28.7455 14.7502 31.5593 15.9157 33.6339 17.9904C35.7085 20.065 36.874 22.8788 36.874 25.8127C36.874 28.7467 35.7085 31.5605 33.6339 33.6351C31.5593 35.7097 28.7455 36.8752 25.8115 36.8752H4.91572V41.7919H25.8115C30.0495 41.7919 34.1138 40.1084 37.1105 37.1117C40.1072 34.115 41.7907 30.0507 41.7907 25.8127C41.7907 21.5748 40.1072 17.5104 37.1105 14.5138C34.1138 11.5171 30.0495 9.83357 25.8115 9.83357ZM46.7074 29.5002V36.8752H40.5615C39.0619 38.8736 37.1717 40.5464 35.0057 41.7919H46.7074V49.1669L56.5407 39.3336L46.7074 29.5002Z" fill="#221E1E"/>
</svg>
