<svg width="45" height="48" viewBox="0 0 45 48" fill="none" xmlns="http://www.w3.org/2000/svg">
<path d="M18.8505 21.2844C21.4311 21.2844 23.906 20.2593 25.7307 18.4345C27.5554 16.6098 28.5805 14.1349 28.5805 11.5544C28.5805 8.97384 27.5554 6.49898 25.7307 4.67425C23.906 2.84952 21.4311 1.8244 18.8505 1.8244C16.27 1.8244 13.7951 2.84952 11.9704 4.67425C10.1457 6.49898 9.12055 8.97384 9.12055 11.5544C9.12055 14.1349 10.1457 16.6098 11.9704 18.4345C13.7951 20.2593 16.27 21.2844 18.8505 21.2844Z" stroke="#221E1E" stroke-width="3.63275" stroke-linecap="round" stroke-linejoin="round"/>
<path d="M43.1757 34.1276C43.1755 35.5913 42.5967 36.9955 41.5654 38.0342C39.1913 40.4278 36.8877 42.9235 34.4236 45.2295C34.1484 45.4809 33.787 45.6167 33.4144 45.609C33.0417 45.6013 32.6863 45.4507 32.4217 45.1882L25.3237 38.0366C24.2913 36.9976 23.7119 35.5923 23.7119 34.1276C23.7119 32.6629 24.2913 31.2576 25.3237 30.2186C25.8385 29.6996 26.4511 29.2876 27.126 29.0065C27.8008 28.7254 28.5247 28.5806 29.2558 28.5806C29.9869 28.5806 30.7107 28.7254 31.3856 29.0065C32.0605 29.2876 32.673 29.6996 33.1879 30.2186L33.4458 30.4788L33.7036 30.2186C34.4769 29.4386 35.4646 28.9062 36.5412 28.6889C37.6178 28.4716 38.7346 28.5793 39.7499 28.9982C40.7651 29.4172 41.6329 30.1286 42.2429 31.0419C42.8529 31.9552 43.1776 33.0293 43.1757 34.1276Z" stroke="#221E1E" stroke-width="3.63275" stroke-linejoin="round"/>
<path d="M1.8244 40.7443V38.3118C1.82381 35.4389 2.5501 32.6127 3.93566 30.096C5.32121 27.5794 7.32099 25.4542 9.74883 23.9184C12.1767 22.3825 14.9536 21.4859 17.8212 21.312C20.6888 21.1381 23.5537 21.6926 26.1494 22.9238" stroke="#221E1E" stroke-width="3.63275" stroke-linecap="round" stroke-linejoin="round"/>
</svg>
