<svg width="59" height="59" viewBox="0 0 59 59" fill="none" xmlns="http://www.w3.org/2000/svg">
<path fill-rule="evenodd" clip-rule="evenodd" d="M33.9469 3.95782C34.8319 3.41699 35.9627 3.71199 36.479 4.5724C37.9048 6.95699 38.5931 12.2424 33.1356 16.7903C32.349 17.4295 31.1935 17.3312 30.5298 16.5445C30.2213 16.1645 30.0742 15.6786 30.1201 15.1913C30.1661 14.704 30.4015 14.2542 30.7756 13.9387C34.7581 10.6199 33.8485 7.3749 33.3077 6.4899C33.0624 6.06798 32.992 5.56683 33.1114 5.09364C33.2309 4.62045 33.5307 4.21278 33.9469 3.95782ZM48.0085 14.2091C48.7215 13.4962 48.7215 12.3162 48.0085 11.6032C47.6613 11.2609 47.1932 11.069 46.7056 11.069C46.218 11.069 45.75 11.2609 45.4027 11.6032L38.0277 18.9782C37.3148 19.6911 37.3148 20.8712 38.0277 21.5841C38.7406 22.297 39.9206 22.297 40.6335 21.5841L48.0085 14.2091ZM31.7098 23.1574L36.4544 27.902C38.7406 30.2128 40.6335 32.0811 41.8381 33.7036C43.0919 35.3999 43.9277 37.1945 43.5344 39.2595C43.1656 41.3245 41.7398 42.7011 39.9698 43.832C38.2244 44.9382 35.8152 46.0199 32.8406 47.3228L24.4085 51.0841C19.4181 53.2966 15.4602 55.042 12.461 55.9024C9.53563 56.7628 6.65938 57.0086 4.64354 54.9682C2.60313 52.9524 2.84896 50.0761 3.70938 47.1507C4.56979 44.1516 6.31521 40.1936 8.52771 35.2032L12.2152 26.9186L12.289 26.7712C13.5919 23.7966 14.6735 21.3874 15.7798 19.642C16.9106 17.872 18.2873 16.4462 20.3523 16.0774C22.4173 15.6841 24.2119 16.5199 25.9081 17.7737C27.5306 18.9782 29.399 20.8712 31.7098 23.1574ZM23.6956 20.7237C22.3435 19.7157 21.606 19.5928 21.016 19.6912C20.426 19.8141 19.7869 20.1828 18.8773 21.6332C18.3365 22.4937 17.771 23.5999 17.1319 25.0012C17.181 25.0257 17.2302 25.0749 17.2794 25.1241L34.4877 42.3324C34.4877 42.3324 34.586 42.4307 34.6106 42.4799C36.0119 41.8407 37.1181 41.2753 37.9785 40.7345C39.429 39.8249 39.7977 39.1857 39.9206 38.5957C40.019 38.0057 39.896 37.2682 38.8881 35.9161C37.8556 34.5149 36.1594 32.8432 33.7256 30.4095L29.2023 25.8861C26.7685 23.4524 25.0969 21.7562 23.6956 20.7237ZM11.9694 36.5553L15.5094 28.5657L31.046 44.1024L23.0565 47.6424L22.5894 47.8391C22.5082 47.6133 22.3732 47.4108 22.196 47.2491L12.3627 37.4157C12.201 37.2386 11.9984 37.1036 11.7727 37.0224L11.9694 36.5553ZM10.224 40.4886L19.1231 49.3878C15.9273 50.7891 13.4198 51.797 11.4531 52.3624C8.62604 53.1736 7.69188 52.8295 7.24938 52.3624C6.78229 51.9199 6.43813 50.9857 7.24938 48.1586C7.81479 46.192 8.82271 43.6845 10.224 40.4886ZM55.0394 23.1328C52.6548 21.707 47.3694 21.0187 42.8215 26.4762C42.1823 27.2628 42.2806 28.4182 43.0673 29.082C43.854 29.7211 45.0094 29.6228 45.6731 28.8361C48.9919 24.8536 52.2369 25.7632 53.1219 26.3041C54.0069 26.8203 55.1377 26.5253 55.654 25.6649C56.1948 24.7799 55.8998 23.6491 55.0394 23.1328ZM44.2473 3.6874C45.2552 3.6874 46.091 4.52324 46.091 5.53115V5.58032C46.091 6.58824 45.2552 7.42407 44.2473 7.42407C43.2394 7.42407 42.4035 6.58824 42.4035 5.58032V5.53115C42.4035 4.52324 43.2394 3.6874 44.2473 3.6874ZM55.9244 15.3645C55.9244 14.3566 55.0885 13.5207 54.0806 13.5207C53.0727 13.5207 52.2369 14.3566 52.2369 15.3645V15.4137C52.2369 16.4216 53.0727 17.2574 54.0806 17.2574C55.0885 17.2574 55.9244 16.4216 55.9244 15.4137V15.3645ZM51.6223 30.7291C52.6302 30.7291 53.466 31.5649 53.466 32.5728V32.622C53.466 33.6299 52.6302 34.4657 51.6223 34.4657C50.6144 34.4657 49.7785 33.6299 49.7785 32.622V32.5728C49.7785 31.5649 50.6144 30.7291 51.6223 30.7291ZM28.8827 7.98949C28.8827 6.98157 28.0469 6.14574 27.039 6.14574C26.031 6.14574 25.1952 6.98157 25.1952 7.98949V8.03865C25.1952 9.04657 26.031 9.8824 27.039 9.8824C28.0469 9.8824 28.8827 9.04657 28.8827 8.03865V7.98949Z" fill="#221E1E"/>
</svg>
