<svg width="59" height="59" viewBox="0 0 59 59" fill="none" xmlns="http://www.w3.org/2000/svg">
<path fill-rule="evenodd" clip-rule="evenodd" d="M44.2499 26.5504C42.6851 26.5504 41.1844 25.9288 40.078 24.8224C38.9715 23.7159 38.3499 22.2152 38.3499 20.6504C38.3499 19.0857 38.9715 17.585 40.078 16.4785C41.1844 15.3721 42.6851 14.7504 44.2499 14.7504C45.8147 14.7504 47.3154 15.3721 48.4218 16.4785C49.5283 17.585 50.1499 19.0857 50.1499 20.6504C50.1499 22.2152 49.5283 23.7159 48.4218 24.8224C47.3154 25.9288 45.8147 26.5504 44.2499 26.5504ZM44.2499 29.5004C43.0877 29.5004 41.9369 29.2715 40.8632 28.8268C39.7894 28.382 38.8138 27.7301 37.992 26.9083C37.1702 26.0865 36.5183 25.1109 36.0736 24.0372C35.6288 22.9635 35.3999 21.8126 35.3999 20.6504C35.3999 19.4882 35.6288 18.3374 36.0736 17.2637C36.5183 16.19 37.1702 15.2143 37.992 14.3926C38.8138 13.5708 39.7894 12.9189 40.8632 12.4741C41.9369 12.0294 43.0877 11.8004 44.2499 11.8004C46.5971 11.8004 48.8481 12.7329 50.5078 14.3926C52.1675 16.0522 53.0999 18.3033 53.0999 20.6504C53.0999 22.9976 52.1675 25.2486 50.5078 26.9083C48.8481 28.568 46.5971 29.5004 44.2499 29.5004Z" fill="#221E1E"/>
<path fill-rule="evenodd" clip-rule="evenodd" d="M47.6306 26.2431C47.4933 26.3801 47.3843 26.5429 47.3099 26.7221C47.2356 26.9013 47.1973 27.0934 47.1973 27.2874C47.1973 27.4814 47.2356 27.6735 47.3099 27.8527C47.3843 28.0319 47.4933 28.1947 47.6306 28.3317L48.6277 29.3258C50.5466 31.2452 51.6247 33.8481 51.6249 36.5622V42.0374C51.6249 42.4286 51.7803 42.8038 52.0569 43.0804C52.3336 43.357 52.7087 43.5124 53.0999 43.5124C53.4911 43.5124 53.8663 43.357 54.1429 43.0804C54.4195 42.8038 54.5749 42.4286 54.5749 42.0374V36.5622C54.5745 33.0658 53.1855 29.7127 50.7134 27.2402L49.7192 26.2431C49.5822 26.1057 49.4194 25.9967 49.2402 25.9224C49.061 25.848 48.8689 25.8097 48.6749 25.8097C48.4809 25.8097 48.2888 25.848 48.1096 25.9224C47.9304 25.9967 47.7676 26.1057 47.6306 26.2431ZM12.8442 25.3581C12.9816 25.4951 13.0906 25.6579 13.1649 25.8371C13.2393 26.0163 13.2776 26.2084 13.2776 26.4024C13.2776 26.5964 13.2393 26.7885 13.1649 26.9677C13.0906 27.1469 12.9816 27.3097 12.8442 27.4467L11.8471 28.4408C9.92826 30.3602 8.85018 32.9631 8.84993 35.6772V42.0374C8.84993 42.4286 8.69453 42.8038 8.41792 43.0804C8.1413 43.357 7.76613 43.5124 7.37493 43.5124C6.98373 43.5124 6.60856 43.357 6.33194 43.0804C6.05533 42.8038 5.89993 42.4286 5.89993 42.0374V35.6772C5.90035 32.1808 7.28934 28.8277 9.76148 26.3552L10.7556 25.3581C10.8926 25.2207 11.0554 25.1117 11.2346 25.0374C11.4138 24.963 11.6059 24.9247 11.7999 24.9247C11.9939 24.9247 12.1861 24.963 12.3652 25.0374C12.5444 25.1117 12.7072 25.2207 12.8442 25.3581Z" fill="#221E1E"/>
<path fill-rule="evenodd" clip-rule="evenodd" d="M17.7002 26.5504C19.265 26.5504 20.7657 25.9288 21.8721 24.8224C22.9786 23.7159 23.6002 22.2152 23.6002 20.6504C23.6002 19.0857 22.9786 17.585 21.8721 16.4785C20.7657 15.3721 19.265 14.7504 17.7002 14.7504C16.1354 14.7504 14.6347 15.3721 13.5283 16.4785C12.4218 17.585 11.8002 19.0857 11.8002 20.6504C11.8002 22.2152 12.4218 23.7159 13.5283 24.8224C14.6347 25.9288 16.1354 26.5504 17.7002 26.5504ZM17.7002 29.5004C18.8624 29.5004 20.0132 29.2715 21.0869 28.8268C22.1607 28.382 23.1363 27.7301 23.9581 26.9083C24.7799 26.0865 25.4318 25.1109 25.8765 24.0372C26.3213 22.9635 26.5502 21.8126 26.5502 20.6504C26.5502 19.4882 26.3213 18.3374 25.8765 17.2637C25.4318 16.19 24.7799 15.2143 23.9581 14.3926C23.1363 13.5708 22.1607 12.9189 21.0869 12.4741C20.0132 12.0294 18.8624 11.8004 17.7002 11.8004C15.353 11.8004 13.102 12.7329 11.4423 14.3926C9.78261 16.0522 8.8502 18.3033 8.8502 20.6504C8.8502 22.9976 9.78261 25.2486 11.4423 26.9083C13.102 28.568 15.353 29.5004 17.7002 29.5004ZM30.9752 39.0879C32.9312 39.0879 34.807 39.865 36.1901 41.248C37.5732 42.6311 38.3502 44.507 38.3502 46.4629V50.2979C38.3502 50.6891 38.5056 51.0643 38.7822 51.3409C39.0588 51.6175 39.434 51.7729 39.8252 51.7729C40.2164 51.7729 40.5916 51.6175 40.8682 51.3409C41.1448 51.0643 41.3002 50.6891 41.3002 50.2979V46.4629C41.3002 43.7246 40.2124 41.0984 38.2761 39.1621C36.3398 37.2258 33.7136 36.1379 30.9752 36.1379C28.2368 36.1379 25.6106 37.2258 23.6743 39.1621C21.738 41.0984 20.6502 43.7246 20.6502 46.4629V50.2979C20.6502 50.6891 20.8056 51.0643 21.0822 51.3409C21.3588 51.6175 21.734 51.7729 22.1252 51.7729C22.5164 51.7729 22.8916 51.6175 23.1682 51.3409C23.4448 51.0643 23.6002 50.6891 23.6002 50.2979V46.4629C23.6002 45.4944 23.791 44.5354 24.1616 43.6407C24.5322 42.7459 25.0755 41.9329 25.7603 41.248C26.4451 40.5632 27.2581 40.02 28.1529 39.6493C29.0477 39.2787 30.0067 39.0879 30.9752 39.0879Z" fill="#221E1E"/>
<path fill-rule="evenodd" clip-rule="evenodd" d="M30.9742 34.6627C29.4094 34.6627 27.9087 34.0411 26.8023 32.9346C25.6958 31.8282 25.0742 30.3275 25.0742 28.7627C25.0742 27.1979 25.6958 25.6972 26.8023 24.5908C27.9087 23.4843 29.4094 22.8627 30.9742 22.8627C32.539 22.8627 34.0396 23.4843 35.1461 24.5908C36.2526 25.6972 36.8742 27.1979 36.8742 28.7627C36.8742 30.3275 36.2526 31.8282 35.1461 32.9346C34.0396 34.0411 32.539 34.6627 30.9742 34.6627ZM30.9742 37.6127C28.627 37.6127 26.376 36.6803 24.7163 35.0206C23.0566 33.3609 22.1242 31.1099 22.1242 28.7627C22.1242 26.4155 23.0566 24.1645 24.7163 22.5048C26.376 20.8451 28.627 19.9127 30.9742 19.9127C33.3213 19.9127 35.5724 20.8451 37.2321 22.5048C38.8918 24.1645 39.8242 26.4155 39.8242 28.7627C39.8242 31.1099 38.8918 33.3609 37.2321 35.0206C35.5724 36.6803 33.3213 37.6127 30.9742 37.6127Z" fill="#221E1E"/>
</svg>
