<svg width="310" height="310" viewBox="0 0 310 310" fill="none" xmlns="http://www.w3.org/2000/svg">
<g clip-path="url(#clip0_19_856)">
<path d="M310 0H0V310H310V0Z" fill="#FEF7F7"/>
<path d="M28.7283 19.3748H19.3748V28.7283H28.7283V19.3748Z" fill="black"/>
<path d="M38.0818 19.3748H28.7283V28.7283H38.0818V19.3748Z" fill="black"/>
<path d="M47.4352 19.3748H38.0818V28.7283H47.4352V19.3748Z" fill="black"/>
<path d="M56.7887 19.3748H47.4352V28.7283H56.7887V19.3748Z" fill="black"/>
<path d="M66.1421 19.3748H56.7887V28.7283H66.1421V19.3748Z" fill="black"/>
<path d="M75.4956 19.3748H66.1421V28.7283H75.4956V19.3748Z" fill="black"/>
<path d="M84.849 19.3748H75.4956V28.7283H84.849V19.3748Z" fill="black"/>
<path d="M103.556 19.3748H94.2025V28.7283H103.556V19.3748Z" fill="black"/>
<path d="M140.97 19.3748H131.616V28.7283H140.97V19.3748Z" fill="black"/>
<path d="M150.323 19.3748H140.97V28.7283H150.323V19.3748Z" fill="black"/>
<path d="M178.384 19.3748H169.03V28.7283H178.384V19.3748Z" fill="black"/>
<path d="M197.09 19.3748H187.737V28.7283H197.09V19.3748Z" fill="black"/>
<path d="M234.504 19.3748H225.151V28.7283H234.504V19.3748Z" fill="black"/>
<path d="M243.858 19.3748H234.504V28.7283H243.858V19.3748Z" fill="black"/>
<path d="M253.211 19.3748H243.858V28.7283H253.211V19.3748Z" fill="black"/>
<path d="M262.565 19.3748H253.211V28.7283H262.565V19.3748Z" fill="black"/>
<path d="M271.918 19.3748H262.565V28.7283H271.918V19.3748Z" fill="black"/>
<path d="M281.272 19.3748H271.918V28.7283H281.272V19.3748Z" fill="black"/>
<path d="M290.625 19.3748H281.272V28.7283H290.625V19.3748Z" fill="black"/>
<path d="M28.7283 28.7283H19.3748V38.0818H28.7283V28.7283Z" fill="black"/>
<path d="M84.849 28.7283H75.4956V38.0818H84.849V28.7283Z" fill="black"/>
<path d="M112.909 28.7283H103.556V38.0818H112.909V28.7283Z" fill="black"/>
<path d="M122.263 28.7283H112.909V38.0818H122.263V28.7283Z" fill="black"/>
<path d="M140.97 28.7283H131.616V38.0818H140.97V28.7283Z" fill="black"/>
<path d="M159.677 28.7283H150.323V38.0818H159.677V28.7283Z" fill="black"/>
<path d="M178.384 28.7283H169.03V38.0818H178.384V28.7283Z" fill="black"/>
<path d="M187.737 28.7283H178.384V38.0818H187.737V28.7283Z" fill="black"/>
<path d="M215.797 28.7283H206.444V38.0818H215.797V28.7283Z" fill="black"/>
<path d="M234.504 28.7283H225.151V38.0818H234.504V28.7283Z" fill="black"/>
<path d="M290.625 28.7283H281.272V38.0818H290.625V28.7283Z" fill="black"/>
<path d="M28.7283 38.0818H19.3748V47.4352H28.7283V38.0818Z" fill="black"/>
<path d="M47.4352 38.0818H38.0818V47.4352H47.4352V38.0818Z" fill="black"/>
<path d="M56.7887 38.0818H47.4352V47.4352H56.7887V38.0818Z" fill="black"/>
<path d="M66.1421 38.0818H56.7887V47.4352H66.1421V38.0818Z" fill="black"/>
<path d="M84.849 38.0818H75.4956V47.4352H84.849V38.0818Z" fill="black"/>
<path d="M103.556 38.0818H94.2025V47.4352H103.556V38.0818Z" fill="black"/>
<path d="M131.616 38.0818H122.263V47.4352H131.616V38.0818Z" fill="black"/>
<path d="M140.97 38.0818H131.616V47.4352H140.97V38.0818Z" fill="black"/>
<path d="M150.323 38.0818H140.97V47.4352H150.323V38.0818Z" fill="black"/>
<path d="M159.677 38.0818H150.323V47.4352H159.677V38.0818Z" fill="black"/>
<path d="M178.384 38.0818H169.03V47.4352H178.384V38.0818Z" fill="black"/>
<path d="M206.444 38.0818H197.09V47.4352H206.444V38.0818Z" fill="black"/>
<path d="M215.797 38.0818H206.444V47.4352H215.797V38.0818Z" fill="black"/>
<path d="M234.504 38.0818H225.151V47.4352H234.504V38.0818Z" fill="black"/>
<path d="M253.211 38.0818H243.858V47.4352H253.211V38.0818Z" fill="black"/>
<path d="M262.565 38.0818H253.211V47.4352H262.565V38.0818Z" fill="black"/>
<path d="M271.918 38.0818H262.565V47.4352H271.918V38.0818Z" fill="black"/>
<path d="M290.625 38.0818H281.272V47.4352H290.625V38.0818Z" fill="black"/>
<path d="M28.7283 47.4352H19.3748V56.7887H28.7283V47.4352Z" fill="black"/>
<path d="M47.4352 47.4352H38.0818V56.7887H47.4352V47.4352Z" fill="black"/>
<path d="M56.7887 47.4352H47.4352V56.7887H56.7887V47.4352Z" fill="black"/>
<path d="M66.1421 47.4352H56.7887V56.7887H66.1421V47.4352Z" fill="black"/>
<path d="M84.849 47.4352H75.4956V56.7887H84.849V47.4352Z" fill="black"/>
<path d="M103.556 47.4352H94.2025V56.7887H103.556V47.4352Z" fill="black"/>
<path d="M112.909 47.4352H103.556V56.7887H112.909V47.4352Z" fill="black"/>
<path d="M131.616 47.4352H122.263V56.7887H131.616V47.4352Z" fill="black"/>
<path d="M159.677 47.4352H150.323V56.7887H159.677V47.4352Z" fill="black"/>
<path d="M178.384 47.4352H169.03V56.7887H178.384V47.4352Z" fill="black"/>
<path d="M197.09 47.4352H187.737V56.7887H197.09V47.4352Z" fill="black"/>
<path d="M206.444 47.4352H197.09V56.7887H206.444V47.4352Z" fill="black"/>
<path d="M234.504 47.4352H225.151V56.7887H234.504V47.4352Z" fill="black"/>
<path d="M253.211 47.4352H243.858V56.7887H253.211V47.4352Z" fill="black"/>
<path d="M262.565 47.4352H253.211V56.7887H262.565V47.4352Z" fill="black"/>
<path d="M271.918 47.4352H262.565V56.7887H271.918V47.4352Z" fill="black"/>
<path d="M290.625 47.4352H281.272V56.7887H290.625V47.4352Z" fill="black"/>
<path d="M28.7283 56.7887H19.3748V66.1421H28.7283V56.7887Z" fill="black"/>
<path d="M47.4352 56.7887H38.0818V66.1421H47.4352V56.7887Z" fill="black"/>
<path d="M56.7887 56.7887H47.4352V66.1421H56.7887V56.7887Z" fill="black"/>
<path d="M66.1421 56.7887H56.7887V66.1421H66.1421V56.7887Z" fill="black"/>
<path d="M84.849 56.7887H75.4956V66.1421H84.849V56.7887Z" fill="black"/>
<path d="M112.909 56.7887H103.556V66.1421H112.909V56.7887Z" fill="black"/>
<path d="M122.263 56.7887H112.909V66.1421H122.263V56.7887Z" fill="black"/>
<path d="M131.616 56.7887H122.263V66.1421H131.616V56.7887Z" fill="black"/>
<path d="M140.97 56.7887H131.616V66.1421H140.97V56.7887Z" fill="black"/>
<path d="M150.323 56.7887H140.97V66.1421H150.323V56.7887Z" fill="black"/>
<path d="M159.677 56.7887H150.323V66.1421H159.677V56.7887Z" fill="black"/>
<path d="M197.09 56.7887H187.737V66.1421H197.09V56.7887Z" fill="black"/>
<path d="M206.444 56.7887H197.09V66.1421H206.444V56.7887Z" fill="black"/>
<path d="M215.797 56.7887H206.444V66.1421H215.797V56.7887Z" fill="black"/>
<path d="M234.504 56.7887H225.151V66.1421H234.504V56.7887Z" fill="black"/>
<path d="M253.211 56.7887H243.858V66.1421H253.211V56.7887Z" fill="black"/>
<path d="M262.565 56.7887H253.211V66.1421H262.565V56.7887Z" fill="black"/>
<path d="M271.918 56.7887H262.565V66.1421H271.918V56.7887Z" fill="black"/>
<path d="M290.625 56.7887H281.272V66.1421H290.625V56.7887Z" fill="black"/>
<path d="M28.7283 66.1421H19.3748V75.4956H28.7283V66.1421Z" fill="black"/>
<path d="M84.849 66.1421H75.4956V75.4956H84.849V66.1421Z" fill="black"/>
<path d="M103.556 66.1421H94.2025V75.4956H103.556V66.1421Z" fill="black"/>
<path d="M112.909 66.1421H103.556V75.4956H112.909V66.1421Z" fill="black"/>
<path d="M131.616 66.1421H122.263V75.4956H131.616V66.1421Z" fill="black"/>
<path d="M169.03 66.1421H159.677V75.4956H169.03V66.1421Z" fill="black"/>
<path d="M178.384 66.1421H169.03V75.4956H178.384V66.1421Z" fill="black"/>
<path d="M215.797 66.1421H206.444V75.4956H215.797V66.1421Z" fill="black"/>
<path d="M234.504 66.1421H225.151V75.4956H234.504V66.1421Z" fill="black"/>
<path d="M290.625 66.1421H281.272V75.4956H290.625V66.1421Z" fill="black"/>
<path d="M28.7283 75.4956H19.3748V84.849H28.7283V75.4956Z" fill="black"/>
<path d="M38.0818 75.4956H28.7283V84.849H38.0818V75.4956Z" fill="black"/>
<path d="M47.4352 75.4956H38.0818V84.849H47.4352V75.4956Z" fill="black"/>
<path d="M56.7887 75.4956H47.4352V84.849H56.7887V75.4956Z" fill="black"/>
<path d="M66.1421 75.4956H56.7887V84.849H66.1421V75.4956Z" fill="black"/>
<path d="M75.4956 75.4956H66.1421V84.849H75.4956V75.4956Z" fill="black"/>
<path d="M84.849 75.4956H75.4956V84.849H84.849V75.4956Z" fill="black"/>
<path d="M103.556 75.4956H94.2025V84.849H103.556V75.4956Z" fill="black"/>
<path d="M122.263 75.4956H112.909V84.849H122.263V75.4956Z" fill="black"/>
<path d="M140.97 75.4956H131.616V84.849H140.97V75.4956Z" fill="black"/>
<path d="M159.677 75.4956H150.323V84.849H159.677V75.4956Z" fill="black"/>
<path d="M178.384 75.4956H169.03V84.849H178.384V75.4956Z" fill="black"/>
<path d="M197.09 75.4956H187.737V84.849H197.09V75.4956Z" fill="black"/>
<path d="M215.797 75.4956H206.444V84.849H215.797V75.4956Z" fill="black"/>
<path d="M234.504 75.4956H225.151V84.849H234.504V75.4956Z" fill="black"/>
<path d="M243.858 75.4956H234.504V84.849H243.858V75.4956Z" fill="black"/>
<path d="M253.211 75.4956H243.858V84.849H253.211V75.4956Z" fill="black"/>
<path d="M262.565 75.4956H253.211V84.849H262.565V75.4956Z" fill="black"/>
<path d="M271.918 75.4956H262.565V84.849H271.918V75.4956Z" fill="black"/>
<path d="M281.272 75.4956H271.918V84.849H281.272V75.4956Z" fill="black"/>
<path d="M290.625 75.4956H281.272V84.849H290.625V75.4956Z" fill="black"/>
<path d="M103.556 84.849H94.2025V94.2025H103.556V84.849Z" fill="black"/>
<path d="M122.263 84.849H112.909V94.2025H122.263V84.849Z" fill="black"/>
<path d="M150.323 84.849H140.97V94.2025H150.323V84.849Z" fill="black"/>
<path d="M159.677 84.849H150.323V94.2025H159.677V84.849Z" fill="black"/>
<path d="M169.03 84.849H159.677V94.2025H169.03V84.849Z" fill="black"/>
<path d="M178.384 84.849H169.03V94.2025H178.384V84.849Z" fill="black"/>
<path d="M187.737 84.849H178.384V94.2025H187.737V84.849Z" fill="black"/>
<path d="M197.09 84.849H187.737V94.2025H197.09V84.849Z" fill="black"/>
<path d="M28.7283 94.2025H19.3748V103.556H28.7283V94.2025Z" fill="black"/>
<path d="M38.0818 94.2025H28.7283V103.556H38.0818V94.2025Z" fill="black"/>
<path d="M56.7887 94.2025H47.4352V103.556H56.7887V94.2025Z" fill="black"/>
<path d="M84.849 94.2025H75.4956V103.556H84.849V94.2025Z" fill="black"/>
<path d="M94.2025 94.2025H84.849V103.556H94.2025V94.2025Z" fill="black"/>
<path d="M112.909 94.2025H103.556V103.556H112.909V94.2025Z" fill="black"/>
<path d="M131.616 94.2025H122.263V103.556H131.616V94.2025Z" fill="black"/>
<path d="M140.97 94.2025H131.616V103.556H140.97V94.2025Z" fill="black"/>
<path d="M150.323 94.2025H140.97V103.556H150.323V94.2025Z" fill="black"/>
<path d="M159.677 94.2025H150.323V103.556H159.677V94.2025Z" fill="black"/>
<path d="M178.384 94.2025H169.03V103.556H178.384V94.2025Z" fill="black"/>
<path d="M197.09 94.2025H187.737V103.556H197.09V94.2025Z" fill="black"/>
<path d="M215.797 94.2025H206.444V103.556H215.797V94.2025Z" fill="black"/>
<path d="M225.151 94.2025H215.797V103.556H225.151V94.2025Z" fill="black"/>
<path d="M234.504 94.2025H225.151V103.556H234.504V94.2025Z" fill="black"/>
<path d="M243.858 94.2025H234.504V103.556H243.858V94.2025Z" fill="black"/>
<path d="M262.565 94.2025H253.211V103.556H262.565V94.2025Z" fill="black"/>
<path d="M271.918 94.2025H262.565V103.556H271.918V94.2025Z" fill="black"/>
<path d="M290.625 94.2025H281.272V103.556H290.625V94.2025Z" fill="black"/>
<path d="M28.7283 103.556H19.3748V112.909H28.7283V103.556Z" fill="black"/>
<path d="M66.1421 103.556H56.7887V112.909H66.1421V103.556Z" fill="black"/>
<path d="M103.556 103.556H94.2025V112.909H103.556V103.556Z" fill="black"/>
<path d="M112.909 103.556H103.556V112.909H112.909V103.556Z" fill="black"/>
<path d="M122.263 103.556H112.909V112.909H122.263V103.556Z" fill="black"/>
<path d="M140.97 103.556H131.616V112.909H140.97V103.556Z" fill="black"/>
<path d="M150.323 103.556H140.97V112.909H150.323V103.556Z" fill="black"/>
<path d="M169.03 103.556H159.677V112.909H169.03V103.556Z" fill="black"/>
<path d="M178.384 103.556H169.03V112.909H178.384V103.556Z" fill="black"/>
<path d="M187.737 103.556H178.384V112.909H187.737V103.556Z" fill="black"/>
<path d="M197.09 103.556H187.737V112.909H197.09V103.556Z" fill="black"/>
<path d="M234.504 103.556H225.151V112.909H234.504V103.556Z" fill="black"/>
<path d="M262.565 103.556H253.211V112.909H262.565V103.556Z" fill="black"/>
<path d="M271.918 103.556H262.565V112.909H271.918V103.556Z" fill="black"/>
<path d="M47.4352 112.909H38.0818V122.263H47.4352V112.909Z" fill="black"/>
<path d="M56.7887 112.909H47.4352V122.263H56.7887V112.909Z" fill="black"/>
<path d="M84.849 112.909H75.4956V122.263H84.849V112.909Z" fill="black"/>
<path d="M131.616 112.909H122.263V122.263H131.616V112.909Z" fill="black"/>
<path d="M169.03 112.909H159.677V122.263H169.03V112.909Z" fill="black"/>
<path d="M178.384 112.909H169.03V122.263H178.384V112.909Z" fill="black"/>
<path d="M197.09 112.909H187.737V122.263H197.09V112.909Z" fill="black"/>
<path d="M225.151 112.909H215.797V122.263H225.151V112.909Z" fill="black"/>
<path d="M243.858 112.909H234.504V122.263H243.858V112.909Z" fill="black"/>
<path d="M262.565 112.909H253.211V122.263H262.565V112.909Z" fill="black"/>
<path d="M28.7283 122.263H19.3748V131.616H28.7283V122.263Z" fill="black"/>
<path d="M66.1421 122.263H56.7887V131.616H66.1421V122.263Z" fill="black"/>
<path d="M94.2025 122.263H84.849V131.616H94.2025V122.263Z" fill="black"/>
<path d="M140.97 122.263H131.616V131.616H140.97V122.263Z" fill="black"/>
<path d="M187.737 122.263H178.384V131.616H187.737V122.263Z" fill="black"/>
<path d="M243.858 122.263H234.504V131.616H243.858V122.263Z" fill="black"/>
<path d="M262.565 122.263H253.211V131.616H262.565V122.263Z" fill="black"/>
<path d="M271.918 122.263H262.565V131.616H271.918V122.263Z" fill="black"/>
<path d="M281.272 122.263H271.918V131.616H281.272V122.263Z" fill="black"/>
<path d="M290.625 122.263H281.272V131.616H290.625V122.263Z" fill="black"/>
<path d="M28.7283 131.616H19.3748V140.97H28.7283V131.616Z" fill="black"/>
<path d="M56.7887 131.616H47.4352V140.97H56.7887V131.616Z" fill="black"/>
<path d="M66.1421 131.616H56.7887V140.97H66.1421V131.616Z" fill="black"/>
<path d="M75.4956 131.616H66.1421V140.97H75.4956V131.616Z" fill="black"/>
<path d="M84.849 131.616H75.4956V140.97H84.849V131.616Z" fill="black"/>
<path d="M103.556 131.616H94.2025V140.97H103.556V131.616Z" fill="black"/>
<path d="M122.263 131.616H112.909V140.97H122.263V131.616Z" fill="black"/>
<path d="M131.616 131.616H122.263V140.97H131.616V131.616Z" fill="black"/>
<path d="M140.97 131.616H131.616V140.97H140.97V131.616Z" fill="black"/>
<path d="M169.03 131.616H159.677V140.97H169.03V131.616Z" fill="black"/>
<path d="M178.384 131.616H169.03V140.97H178.384V131.616Z" fill="black"/>
<path d="M197.09 131.616H187.737V140.97H197.09V131.616Z" fill="black"/>
<path d="M215.797 131.616H206.444V140.97H215.797V131.616Z" fill="black"/>
<path d="M234.504 131.616H225.151V140.97H234.504V131.616Z" fill="black"/>
<path d="M253.211 131.616H243.858V140.97H253.211V131.616Z" fill="black"/>
<path d="M262.565 131.616H253.211V140.97H262.565V131.616Z" fill="black"/>
<path d="M47.4352 140.97H38.0818V150.323H47.4352V140.97Z" fill="black"/>
<path d="M66.1421 140.97H56.7887V150.323H66.1421V140.97Z" fill="black"/>
<path d="M94.2025 140.97H84.849V150.323H94.2025V140.97Z" fill="black"/>
<path d="M103.556 140.97H94.2025V150.323H103.556V140.97Z" fill="black"/>
<path d="M131.616 140.97H122.263V150.323H131.616V140.97Z" fill="black"/>
<path d="M150.323 140.97H140.97V150.323H150.323V140.97Z" fill="black"/>
<path d="M169.03 140.97H159.677V150.323H169.03V140.97Z" fill="black"/>
<path d="M187.737 140.97H178.384V150.323H187.737V140.97Z" fill="black"/>
<path d="M215.797 140.97H206.444V150.323H215.797V140.97Z" fill="black"/>
<path d="M225.151 140.97H215.797V150.323H225.151V140.97Z" fill="black"/>
<path d="M234.504 140.97H225.151V150.323H234.504V140.97Z" fill="black"/>
<path d="M271.918 140.97H262.565V150.323H271.918V140.97Z" fill="black"/>
<path d="M290.625 140.97H281.272V150.323H290.625V140.97Z" fill="black"/>
<path d="M38.0818 150.323H28.7283V159.677H38.0818V150.323Z" fill="black"/>
<path d="M47.4352 150.323H38.0818V159.677H47.4352V150.323Z" fill="black"/>
<path d="M75.4956 150.323H66.1421V159.677H75.4956V150.323Z" fill="black"/>
<path d="M84.849 150.323H75.4956V159.677H84.849V150.323Z" fill="black"/>
<path d="M94.2025 150.323H84.849V159.677H94.2025V150.323Z" fill="black"/>
<path d="M103.556 150.323H94.2025V159.677H103.556V150.323Z" fill="black"/>
<path d="M122.263 150.323H112.909V159.677H122.263V150.323Z" fill="black"/>
<path d="M131.616 150.323H122.263V159.677H131.616V150.323Z" fill="black"/>
<path d="M159.677 150.323H150.323V159.677H159.677V150.323Z" fill="black"/>
<path d="M225.151 150.323H215.797V159.677H225.151V150.323Z" fill="black"/>
<path d="M253.211 150.323H243.858V159.677H253.211V150.323Z" fill="black"/>
<path d="M262.565 150.323H253.211V159.677H262.565V150.323Z" fill="black"/>
<path d="M271.918 150.323H262.565V159.677H271.918V150.323Z" fill="black"/>
<path d="M28.7283 159.677H19.3748V169.03H28.7283V159.677Z" fill="black"/>
<path d="M38.0818 159.677H28.7283V169.03H38.0818V159.677Z" fill="black"/>
<path d="M47.4352 159.677H38.0818V169.03H47.4352V159.677Z" fill="black"/>
<path d="M112.909 159.677H103.556V169.03H112.909V159.677Z" fill="black"/>
<path d="M122.263 159.677H112.909V169.03H122.263V159.677Z" fill="black"/>
<path d="M131.616 159.677H122.263V169.03H131.616V159.677Z" fill="black"/>
<path d="M169.03 159.677H159.677V169.03H169.03V159.677Z" fill="black"/>
<path d="M206.444 159.677H197.09V169.03H206.444V159.677Z" fill="black"/>
<path d="M215.797 159.677H206.444V169.03H215.797V159.677Z" fill="black"/>
<path d="M225.151 159.677H215.797V169.03H225.151V159.677Z" fill="black"/>
<path d="M253.211 159.677H243.858V169.03H253.211V159.677Z" fill="black"/>
<path d="M271.918 159.677H262.565V169.03H271.918V159.677Z" fill="black"/>
<path d="M290.625 159.677H281.272V169.03H290.625V159.677Z" fill="black"/>
<path d="M28.7283 169.03H19.3748V178.384H28.7283V169.03Z" fill="black"/>
<path d="M56.7887 169.03H47.4352V178.384H56.7887V169.03Z" fill="black"/>
<path d="M84.849 169.03H75.4956V178.384H84.849V169.03Z" fill="black"/>
<path d="M103.556 169.03H94.2025V178.384H103.556V169.03Z" fill="black"/>
<path d="M112.909 169.03H103.556V178.384H112.909V169.03Z" fill="black"/>
<path d="M140.97 169.03H131.616V178.384H140.97V169.03Z" fill="black"/>
<path d="M206.444 169.03H197.09V178.384H206.444V169.03Z" fill="black"/>
<path d="M234.504 169.03H225.151V178.384H234.504V169.03Z" fill="black"/>
<path d="M243.858 169.03H234.504V178.384H243.858V169.03Z" fill="black"/>
<path d="M262.565 169.03H253.211V178.384H262.565V169.03Z" fill="black"/>
<path d="M271.918 169.03H262.565V178.384H271.918V169.03Z" fill="black"/>
<path d="M281.272 169.03H271.918V178.384H281.272V169.03Z" fill="black"/>
<path d="M290.625 169.03H281.272V178.384H290.625V169.03Z" fill="black"/>
<path d="M28.7283 178.384H19.3748V187.737H28.7283V178.384Z" fill="black"/>
<path d="M56.7887 178.384H47.4352V187.737H56.7887V178.384Z" fill="black"/>
<path d="M94.2025 178.384H84.849V187.737H94.2025V178.384Z" fill="black"/>
<path d="M103.556 178.384H94.2025V187.737H103.556V178.384Z" fill="black"/>
<path d="M112.909 178.384H103.556V187.737H112.909V178.384Z" fill="black"/>
<path d="M159.677 178.384H150.323V187.737H159.677V178.384Z" fill="black"/>
<path d="M169.03 178.384H159.677V187.737H169.03V178.384Z" fill="black"/>
<path d="M178.384 178.384H169.03V187.737H178.384V178.384Z" fill="black"/>
<path d="M206.444 178.384H197.09V187.737H206.444V178.384Z" fill="black"/>
<path d="M225.151 178.384H215.797V187.737H225.151V178.384Z" fill="black"/>
<path d="M243.858 178.384H234.504V187.737H243.858V178.384Z" fill="black"/>
<path d="M262.565 178.384H253.211V187.737H262.565V178.384Z" fill="black"/>
<path d="M290.625 178.384H281.272V187.737H290.625V178.384Z" fill="black"/>
<path d="M28.7283 187.737H19.3748V197.09H28.7283V187.737Z" fill="black"/>
<path d="M38.0818 187.737H28.7283V197.09H38.0818V187.737Z" fill="black"/>
<path d="M47.4352 187.737H38.0818V197.09H47.4352V187.737Z" fill="black"/>
<path d="M75.4956 187.737H66.1421V197.09H75.4956V187.737Z" fill="black"/>
<path d="M84.849 187.737H75.4956V197.09H84.849V187.737Z" fill="black"/>
<path d="M94.2025 187.737H84.849V197.09H94.2025V187.737Z" fill="black"/>
<path d="M112.909 187.737H103.556V197.09H112.909V187.737Z" fill="black"/>
<path d="M122.263 187.737H112.909V197.09H122.263V187.737Z" fill="black"/>
<path d="M131.616 187.737H122.263V197.09H131.616V187.737Z" fill="black"/>
<path d="M140.97 187.737H131.616V197.09H140.97V187.737Z" fill="black"/>
<path d="M159.677 187.737H150.323V197.09H159.677V187.737Z" fill="black"/>
<path d="M169.03 187.737H159.677V197.09H169.03V187.737Z" fill="black"/>
<path d="M178.384 187.737H169.03V197.09H178.384V187.737Z" fill="black"/>
<path d="M197.09 187.737H187.737V197.09H197.09V187.737Z" fill="black"/>
<path d="M206.444 187.737H197.09V197.09H206.444V187.737Z" fill="black"/>
<path d="M234.504 187.737H225.151V197.09H234.504V187.737Z" fill="black"/>
<path d="M28.7283 197.09H19.3748V206.444H28.7283V197.09Z" fill="black"/>
<path d="M66.1421 197.09H56.7887V206.444H66.1421V197.09Z" fill="black"/>
<path d="M75.4956 197.09H66.1421V206.444H75.4956V197.09Z" fill="black"/>
<path d="M94.2025 197.09H84.849V206.444H94.2025V197.09Z" fill="black"/>
<path d="M112.909 197.09H103.556V206.444H112.909V197.09Z" fill="black"/>
<path d="M140.97 197.09H131.616V206.444H140.97V197.09Z" fill="black"/>
<path d="M150.323 197.09H140.97V206.444H150.323V197.09Z" fill="black"/>
<path d="M159.677 197.09H150.323V206.444H159.677V197.09Z" fill="black"/>
<path d="M215.797 197.09H206.444V206.444H215.797V197.09Z" fill="black"/>
<path d="M234.504 197.09H225.151V206.444H234.504V197.09Z" fill="black"/>
<path d="M262.565 197.09H253.211V206.444H262.565V197.09Z" fill="black"/>
<path d="M271.918 197.09H262.565V206.444H271.918V197.09Z" fill="black"/>
<path d="M281.272 197.09H271.918V206.444H281.272V197.09Z" fill="black"/>
<path d="M290.625 197.09H281.272V206.444H290.625V197.09Z" fill="black"/>
<path d="M28.7283 206.444H19.3748V215.797H28.7283V206.444Z" fill="black"/>
<path d="M84.849 206.444H75.4956V215.797H84.849V206.444Z" fill="black"/>
<path d="M122.263 206.444H112.909V215.797H122.263V206.444Z" fill="black"/>
<path d="M131.616 206.444H122.263V215.797H131.616V206.444Z" fill="black"/>
<path d="M159.677 206.444H150.323V215.797H159.677V206.444Z" fill="black"/>
<path d="M169.03 206.444H159.677V215.797H169.03V206.444Z" fill="black"/>
<path d="M178.384 206.444H169.03V215.797H178.384V206.444Z" fill="black"/>
<path d="M187.737 206.444H178.384V215.797H187.737V206.444Z" fill="black"/>
<path d="M215.797 206.444H206.444V215.797H215.797V206.444Z" fill="black"/>
<path d="M225.151 206.444H215.797V215.797H225.151V206.444Z" fill="black"/>
<path d="M234.504 206.444H225.151V215.797H234.504V206.444Z" fill="black"/>
<path d="M243.858 206.444H234.504V215.797H243.858V206.444Z" fill="black"/>
<path d="M253.211 206.444H243.858V215.797H253.211V206.444Z" fill="black"/>
<path d="M262.565 206.444H253.211V215.797H262.565V206.444Z" fill="black"/>
<path d="M271.918 206.444H262.565V215.797H271.918V206.444Z" fill="black"/>
<path d="M281.272 206.444H271.918V215.797H281.272V206.444Z" fill="black"/>
<path d="M290.625 206.444H281.272V215.797H290.625V206.444Z" fill="black"/>
<path d="M112.909 215.797H103.556V225.151H112.909V215.797Z" fill="black"/>
<path d="M122.263 215.797H112.909V225.151H122.263V215.797Z" fill="black"/>
<path d="M159.677 215.797H150.323V225.151H159.677V215.797Z" fill="black"/>
<path d="M169.03 215.797H159.677V225.151H169.03V215.797Z" fill="black"/>
<path d="M178.384 215.797H169.03V225.151H178.384V215.797Z" fill="black"/>
<path d="M197.09 215.797H187.737V225.151H197.09V215.797Z" fill="black"/>
<path d="M206.444 215.797H197.09V225.151H206.444V215.797Z" fill="black"/>
<path d="M215.797 215.797H206.444V225.151H215.797V215.797Z" fill="black"/>
<path d="M253.211 215.797H243.858V225.151H253.211V215.797Z" fill="black"/>
<path d="M262.565 215.797H253.211V225.151H262.565V215.797Z" fill="black"/>
<path d="M271.918 215.797H262.565V225.151H271.918V215.797Z" fill="black"/>
<path d="M281.272 215.797H271.918V225.151H281.272V215.797Z" fill="black"/>
<path d="M28.7283 225.151H19.3748V234.504H28.7283V225.151Z" fill="black"/>
<path d="M38.0818 225.151H28.7283V234.504H38.0818V225.151Z" fill="black"/>
<path d="M47.4352 225.151H38.0818V234.504H47.4352V225.151Z" fill="black"/>
<path d="M56.7887 225.151H47.4352V234.504H56.7887V225.151Z" fill="black"/>
<path d="M66.1421 225.151H56.7887V234.504H66.1421V225.151Z" fill="black"/>
<path d="M75.4956 225.151H66.1421V234.504H75.4956V225.151Z" fill="black"/>
<path d="M84.849 225.151H75.4956V234.504H84.849V225.151Z" fill="black"/>
<path d="M103.556 225.151H94.2025V234.504H103.556V225.151Z" fill="black"/>
<path d="M112.909 225.151H103.556V234.504H112.909V225.151Z" fill="black"/>
<path d="M122.263 225.151H112.909V234.504H122.263V225.151Z" fill="black"/>
<path d="M131.616 225.151H122.263V234.504H131.616V225.151Z" fill="black"/>
<path d="M150.323 225.151H140.97V234.504H150.323V225.151Z" fill="black"/>
<path d="M215.797 225.151H206.444V234.504H215.797V225.151Z" fill="black"/>
<path d="M234.504 225.151H225.151V234.504H234.504V225.151Z" fill="black"/>
<path d="M253.211 225.151H243.858V234.504H253.211V225.151Z" fill="black"/>
<path d="M290.625 225.151H281.272V234.504H290.625V225.151Z" fill="black"/>
<path d="M28.7283 234.504H19.3748V243.858H28.7283V234.504Z" fill="black"/>
<path d="M84.849 234.504H75.4956V243.858H84.849V234.504Z" fill="black"/>
<path d="M112.909 234.504H103.556V243.858H112.909V234.504Z" fill="black"/>
<path d="M169.03 234.504H159.677V243.858H169.03V234.504Z" fill="black"/>
<path d="M178.384 234.504H169.03V243.858H178.384V234.504Z" fill="black"/>
<path d="M187.737 234.504H178.384V243.858H187.737V234.504Z" fill="black"/>
<path d="M197.09 234.504H187.737V243.858H197.09V234.504Z" fill="black"/>
<path d="M215.797 234.504H206.444V243.858H215.797V234.504Z" fill="black"/>
<path d="M253.211 234.504H243.858V243.858H253.211V234.504Z" fill="black"/>
<path d="M271.918 234.504H262.565V243.858H271.918V234.504Z" fill="black"/>
<path d="M281.272 234.504H271.918V243.858H281.272V234.504Z" fill="black"/>
<path d="M28.7283 243.858H19.3748V253.211H28.7283V243.858Z" fill="black"/>
<path d="M47.4352 243.858H38.0818V253.211H47.4352V243.858Z" fill="black"/>
<path d="M56.7887 243.858H47.4352V253.211H56.7887V243.858Z" fill="black"/>
<path d="M66.1421 243.858H56.7887V253.211H66.1421V243.858Z" fill="black"/>
<path d="M84.849 243.858H75.4956V253.211H84.849V243.858Z" fill="black"/>
<path d="M112.909 243.858H103.556V253.211H112.909V243.858Z" fill="black"/>
<path d="M131.616 243.858H122.263V253.211H131.616V243.858Z" fill="black"/>
<path d="M159.677 243.858H150.323V253.211H159.677V243.858Z" fill="black"/>
<path d="M178.384 243.858H169.03V253.211H178.384V243.858Z" fill="black"/>
<path d="M197.09 243.858H187.737V253.211H197.09V243.858Z" fill="black"/>
<path d="M215.797 243.858H206.444V253.211H215.797V243.858Z" fill="black"/>
<path d="M225.151 243.858H215.797V253.211H225.151V243.858Z" fill="black"/>
<path d="M234.504 243.858H225.151V253.211H234.504V243.858Z" fill="black"/>
<path d="M243.858 243.858H234.504V253.211H243.858V243.858Z" fill="black"/>
<path d="M253.211 243.858H243.858V253.211H253.211V243.858Z" fill="black"/>
<path d="M262.565 243.858H253.211V253.211H262.565V243.858Z" fill="black"/>
<path d="M28.7283 253.211H19.3748V262.565H28.7283V253.211Z" fill="black"/>
<path d="M47.4352 253.211H38.0818V262.565H47.4352V253.211Z" fill="black"/>
<path d="M56.7887 253.211H47.4352V262.565H56.7887V253.211Z" fill="black"/>
<path d="M66.1421 253.211H56.7887V262.565H66.1421V253.211Z" fill="black"/>
<path d="M84.849 253.211H75.4956V262.565H84.849V253.211Z" fill="black"/>
<path d="M103.556 253.211H94.2025V262.565H103.556V253.211Z" fill="black"/>
<path d="M140.97 253.211H131.616V262.565H140.97V253.211Z" fill="black"/>
<path d="M178.384 253.211H169.03V262.565H178.384V253.211Z" fill="black"/>
<path d="M187.737 253.211H178.384V262.565H187.737V253.211Z" fill="black"/>
<path d="M215.797 253.211H206.444V262.565H215.797V253.211Z" fill="black"/>
<path d="M225.151 253.211H215.797V262.565H225.151V253.211Z" fill="black"/>
<path d="M234.504 253.211H225.151V262.565H234.504V253.211Z" fill="black"/>
<path d="M243.858 253.211H234.504V262.565H243.858V253.211Z" fill="black"/>
<path d="M262.565 253.211H253.211V262.565H262.565V253.211Z" fill="black"/>
<path d="M281.272 253.211H271.918V262.565H281.272V253.211Z" fill="black"/>
<path d="M28.7283 262.565H19.3748V271.918H28.7283V262.565Z" fill="black"/>
<path d="M47.4352 262.565H38.0818V271.918H47.4352V262.565Z" fill="black"/>
<path d="M56.7887 262.565H47.4352V271.918H56.7887V262.565Z" fill="black"/>
<path d="M66.1421 262.565H56.7887V271.918H66.1421V262.565Z" fill="black"/>
<path d="M84.849 262.565H75.4956V271.918H84.849V262.565Z" fill="black"/>
<path d="M122.263 262.565H112.909V271.918H122.263V262.565Z" fill="black"/>
<path d="M140.97 262.565H131.616V271.918H140.97V262.565Z" fill="black"/>
<path d="M150.323 262.565H140.97V271.918H150.323V262.565Z" fill="black"/>
<path d="M159.677 262.565H150.323V271.918H159.677V262.565Z" fill="black"/>
<path d="M187.737 262.565H178.384V271.918H187.737V262.565Z" fill="black"/>
<path d="M197.09 262.565H187.737V271.918H197.09V262.565Z" fill="black"/>
<path d="M206.444 262.565H197.09V271.918H206.444V262.565Z" fill="black"/>
<path d="M215.797 262.565H206.444V271.918H215.797V262.565Z" fill="black"/>
<path d="M225.151 262.565H215.797V271.918H225.151V262.565Z" fill="black"/>
<path d="M253.211 262.565H243.858V271.918H253.211V262.565Z" fill="black"/>
<path d="M271.918 262.565H262.565V271.918H271.918V262.565Z" fill="black"/>
<path d="M28.7283 271.918H19.3748V281.272H28.7283V271.918Z" fill="black"/>
<path d="M84.849 271.918H75.4956V281.272H84.849V271.918Z" fill="black"/>
<path d="M103.556 271.918H94.2025V281.272H103.556V271.918Z" fill="black"/>
<path d="M122.263 271.918H112.909V281.272H122.263V271.918Z" fill="black"/>
<path d="M150.323 271.918H140.97V281.272H150.323V271.918Z" fill="black"/>
<path d="M159.677 271.918H150.323V281.272H159.677V271.918Z" fill="black"/>
<path d="M169.03 271.918H159.677V281.272H169.03V271.918Z" fill="black"/>
<path d="M178.384 271.918H169.03V281.272H178.384V271.918Z" fill="black"/>
<path d="M187.737 271.918H178.384V281.272H187.737V271.918Z" fill="black"/>
<path d="M225.151 271.918H215.797V281.272H225.151V271.918Z" fill="black"/>
<path d="M234.504 271.918H225.151V281.272H234.504V271.918Z" fill="black"/>
<path d="M243.858 271.918H234.504V281.272H243.858V271.918Z" fill="black"/>
<path d="M253.211 271.918H243.858V281.272H253.211V271.918Z" fill="black"/>
<path d="M262.565 271.918H253.211V281.272H262.565V271.918Z" fill="black"/>
<path d="M281.272 271.918H271.918V281.272H281.272V271.918Z" fill="black"/>
<path d="M290.625 271.918H281.272V281.272H290.625V271.918Z" fill="black"/>
<path d="M28.7283 281.272H19.3748V290.625H28.7283V281.272Z" fill="black"/>
<path d="M38.0818 281.272H28.7283V290.625H38.0818V281.272Z" fill="black"/>
<path d="M47.4352 281.272H38.0818V290.625H47.4352V281.272Z" fill="black"/>
<path d="M56.7887 281.272H47.4352V290.625H56.7887V281.272Z" fill="black"/>
<path d="M66.1421 281.272H56.7887V290.625H66.1421V281.272Z" fill="black"/>
<path d="M75.4956 281.272H66.1421V290.625H75.4956V281.272Z" fill="black"/>
<path d="M84.849 281.272H75.4956V290.625H84.849V281.272Z" fill="black"/>
<path d="M103.556 281.272H94.2025V290.625H103.556V281.272Z" fill="black"/>
<path d="M112.909 281.272H103.556V290.625H112.909V281.272Z" fill="black"/>
<path d="M131.616 281.272H122.263V290.625H131.616V281.272Z" fill="black"/>
<path d="M150.323 281.272H140.97V290.625H150.323V281.272Z" fill="black"/>
<path d="M159.677 281.272H150.323V290.625H159.677V281.272Z" fill="black"/>
<path d="M225.151 281.272H215.797V290.625H225.151V281.272Z" fill="black"/>
<path d="M243.858 281.272H234.504V290.625H243.858V281.272Z" fill="black"/>
<path d="M253.211 281.272H243.858V290.625H253.211V281.272Z" fill="black"/>
<path d="M271.918 281.272H262.565V290.625H271.918V281.272Z" fill="black"/>
</g>
<defs>
<clipPath id="clip0_19_856">
<rect width="309.995" height="309.995" fill="white"/>
</clipPath>
</defs>
</svg>
