<svg width="59" height="59" viewBox="0 0 59 59" fill="none" xmlns="http://www.w3.org/2000/svg">
<path d="M30.0657 42.0769V39.9013H36.2115V33.7555H38.3896V42.0769H30.0657ZM20.6134 25.2447V16.9257H28.9324V19.0989H22.7865V25.2447H20.6134ZM18.7205 54.0834C17.5896 54.0834 16.6456 53.7048 15.8885 52.9477C15.1313 52.1905 14.7519 51.2457 14.7502 50.1132V8.88696C14.7502 7.75612 15.1297 6.81212 15.8885 6.05496C16.6473 5.29779 17.5921 4.91839 18.7229 4.91675H40.28C41.4109 4.91675 42.3549 5.29615 43.112 6.05496C43.8692 6.81376 44.2486 7.75858 44.2502 8.88942V50.1132C44.2502 51.244 43.8717 52.1889 43.1145 52.9477C42.3573 53.7065 41.4117 54.0851 40.2776 54.0834H18.7205ZM17.2086 47.9376V50.1132C17.2086 50.4902 17.3659 50.8368 17.6806 51.1531C17.9952 51.4694 18.3419 51.6267 18.7205 51.6251H40.28C40.657 51.6251 41.0036 51.4678 41.3199 51.1531C41.6362 50.8384 41.7936 50.491 41.7919 50.1107V47.9376H17.2086ZM17.2086 45.4792H41.7919V13.5209H17.2086V45.4792ZM17.2086 11.0626H41.7919V8.88696C41.7919 8.51001 41.6346 8.16339 41.3199 7.84708C41.0052 7.53078 40.6578 7.37344 40.2776 7.37508H18.7229C18.3443 7.37508 17.9969 7.53242 17.6806 7.84708C17.3643 8.16175 17.2069 8.50919 17.2086 8.88942V11.0626Z" fill="#221E1E"/>
</svg>
