<svg width="59" height="59" viewBox="0 0 59 59" fill="none" xmlns="http://www.w3.org/2000/svg">
<path d="M55.2669 46.0618L45.9233 36.7181L38.7363 33.7489C41.1294 30.3459 42.4115 26.286 42.4068 22.1258C42.4068 10.9426 33.3087 1.84452 22.1255 1.84452C10.9424 1.84452 1.84428 10.9426 1.84428 22.1258C1.84428 33.3089 10.9424 42.407 22.1255 42.407C26.3219 42.4118 30.4154 41.1076 33.8355 38.6761L36.797 45.8437L46.1404 55.1878C46.7396 55.787 47.451 56.2624 48.2339 56.5867C49.0168 56.9111 49.856 57.078 50.7034 57.078C51.5509 57.0781 52.3901 56.9112 53.173 56.5869C53.956 56.2626 54.6674 55.7873 55.2666 55.1881C55.8659 54.5889 56.3413 53.8775 56.6656 53.0945C56.9899 52.3116 57.1569 51.4724 57.1569 50.625C57.1569 49.7775 56.99 48.9384 56.6657 48.1554C56.3415 47.3725 55.8661 46.6611 55.2669 46.0618ZM5.53178 22.1258C5.53178 12.9762 12.9759 5.53202 22.1255 5.53202C31.2751 5.53202 38.7193 12.9762 38.7193 22.1258C38.7193 31.2754 31.2751 38.7195 22.1255 38.7195C12.9759 38.7195 5.53178 31.2754 5.53178 22.1258ZM52.6593 52.5804C52.1402 53.0982 51.4369 53.389 50.7036 53.389C49.9704 53.389 49.2671 53.0982 48.748 52.5804L39.9243 43.7566L37.1709 37.0921L43.8357 39.8455L52.6595 48.6692C53.1773 49.1883 53.468 49.8916 53.468 50.6248C53.468 51.358 53.1771 52.0613 52.6593 52.5804Z" fill="#221E1E"/>
</svg>
