<svg width="59" height="59" viewBox="0 0 59 59" fill="none" xmlns="http://www.w3.org/2000/svg">
<g clip-path="url(#clip0_19_817)">
<mask id="mask0_19_817" style="mask-type:luminance" maskUnits="userSpaceOnUse" x="0" y="0" width="59" height="59">
<path d="M59 0H0V59H59V0Z" fill="white"/>
</mask>
<g mask="url(#mask0_19_817)">
<path d="M29.5002 44.2507C25.5883 44.2507 21.8366 42.6967 19.0704 39.9306C16.3043 37.1644 14.7502 33.4127 14.7502 29.5007C14.7502 25.5888 16.3043 21.8371 19.0704 19.0709C21.8366 16.3048 25.5883 14.7507 29.5002 14.7507C33.4122 14.7507 37.1639 16.3048 39.9301 19.0709C42.6962 21.8371 44.2502 25.5888 44.2502 29.5007C44.2502 33.4127 42.6962 37.1644 39.9301 39.9306C37.1639 42.6967 33.4122 44.2507 29.5002 44.2507Z" stroke="#221E1E" stroke-width="3.63275" stroke-miterlimit="10"/>
<path d="M51.6245 29.5005H56.5411M2.4578 29.5005H7.37447M29.4995 51.6255V56.5422M29.4995 2.45887V7.37554M45.1443 45.1454L48.6204 48.6214M10.3786 10.3796L13.8546 13.8557M45.1443 13.8557L48.6204 10.3796M10.3786 48.6214L13.8546 45.1454M14.7495 29.5005C14.7495 33.4125 16.3035 37.1642 19.0696 39.9304C21.8358 42.6965 25.5875 44.2505 29.4995 44.2505C33.4114 44.2505 37.1631 42.6965 39.9293 39.9304C42.6955 37.1642 44.2495 33.4125 44.2495 29.5005C44.2495 25.5886 42.6955 21.8369 39.9293 19.0707C37.1631 16.3045 33.4114 14.7505 29.4995 14.7505C25.5875 14.7505 21.8358 16.3045 19.0696 19.0707C16.3035 21.8369 14.7495 25.5886 14.7495 29.5005Z" stroke="#221E1E" stroke-width="3.63275" stroke-miterlimit="10" stroke-linecap="round"/>
</g>
</g>
<defs>
<clipPath id="clip0_19_817">
<rect width="58.124" height="58.124" fill="white" transform="matrix(-1.01507 0 0 1.01507 59 0)"/>
</clipPath>
</defs>
</svg>
