<svg width="59" height="59" viewBox="0 0 59 59" fill="none" xmlns="http://www.w3.org/2000/svg">
<g clip-path="url(#clip0_19_789)">
<path d="M13.0503 14.7506C15.1629 12.3883 17.6405 10.5733 20.4829 9.30573C23.3254 8.03815 26.3311 7.39476 29.5 7.37556C30.1146 7.37556 30.7292 7.40437 31.3437 7.46198C31.9583 7.5196 32.5729 7.59642 33.1875 7.69245V11.4376C32.5729 11.3223 31.9583 11.2359 31.3437 11.1783C30.7292 11.1207 30.1146 11.0823 29.5 11.0631C27.5026 11.0631 25.582 11.38 23.7383 12.0137C21.8945 12.6475 20.166 13.5598 18.5527 14.7506H13.0503ZM47.563 33.1881C47.6782 32.5735 47.7646 31.9589 47.8223 31.3443C47.8799 30.7297 47.9183 30.1151 47.9375 29.5006C47.9375 28.886 47.9087 28.2714 47.8511 27.6568C47.7935 27.0422 47.6974 26.4276 47.563 25.8131H51.3081C51.4041 26.4276 51.481 27.0422 51.5386 27.6568C51.5962 28.2714 51.625 28.886 51.625 29.5006C51.625 30.1151 51.5962 30.7297 51.5386 31.3443C51.481 31.9589 51.4041 32.5735 51.3081 33.1881H47.563ZM14.8364 40.5631C15.7007 41.7154 16.6802 42.7429 17.7749 43.6456C18.8696 44.5482 20.0412 45.3261 21.2896 45.9791C22.5379 46.6321 23.8631 47.1122 25.2651 47.4195C26.6672 47.7268 28.0788 47.8996 29.5 47.938C30.1146 47.938 30.7292 47.9092 31.3437 47.8516C31.9583 47.794 32.5729 47.698 33.1875 47.5635V51.3087C32.5729 51.4047 31.9583 51.4815 31.3437 51.5391C30.7292 51.5967 30.1146 51.6255 29.5 51.6255C27.5218 51.6255 25.6012 51.3759 23.7383 50.8765C21.8753 50.3772 20.118 49.6378 18.4663 48.6583C16.8146 47.6788 15.2974 46.5168 13.9146 45.1724C12.5317 43.828 11.3506 42.2916 10.3711 40.5631H14.8364ZM59 3.68806V22.1256H36.875V3.68806H59ZM55.3125 7.37556H40.5625V18.4381H55.3125V7.37556ZM36.875 36.8756H59V55.313H36.875V36.8756ZM40.5625 51.6255H55.3125V40.5631H40.5625V51.6255ZM22.125 36.8756H0V18.4381H22.125V36.8756ZM18.4375 22.1256H3.6875V33.1881H18.4375V22.1256Z" fill="#221E1E"/>
</g>
<defs>
<clipPath id="clip0_19_789">
<rect width="58.124" height="58.124" fill="white" transform="scale(1.01507)"/>
</clipPath>
</defs>
</svg>
